<svg xmlns="http://www.w3.org/2000/svg" width="82" height="66" fill="none" viewBox="0 0 82 66">
  <path fill="#fff" d="M67.859 50.055 65.844 56.1l-2.015 7.657s-5.239 2.821-5.642.806c-.403-2.015 2.015-2.418 2.015-2.418l.806-4.03-6.045-10.88 12.896 2.82Z"/>
  <path fill="#fff" d="M67.859 50.055 65.844 56.1l-2.015 7.657s-5.239 2.821-5.642.806c-.403-2.015 2.015-2.418 2.015-2.418l.806-4.03-6.045-10.88 12.896 2.82Zm-34.255-2.418L29.977 64.16s-2.82 1.612-4.836.806c-2.015-.806 1.21-2.82 1.21-2.82S25.14 52.07 19.095 50.86c-6.045-1.209 14.508-3.224 14.508-3.224Z"/>
  <path fill="#fff" d="M33.604 47.637 29.977 64.16s-2.82 1.612-4.836.806c-2.015-.806 1.21-2.82 1.21-2.82S25.14 52.07 19.095 50.86c-6.045-1.209 14.508-3.224 14.508-3.224Z"/>
  <path fill="#fff" d="M9.827 28.293s8.06 2.821 15.314 1.21c0 0 14.105-2.016 15.314-2.419 1.21-.403 14.911-1.209 22.165 0 0 0 20.15-15.716 8.866-22.567 0 0-4.836 2.418-6.045.806-.453-.605-.227-1.38.234-2.111A5.852 5.852 0 0 1 70.443.563c4.212-.157 11.758 1.356 8.332 15.125a26.777 26.777 0 0 1-5.269 10.36c-1.834 2.263-3.733 5.394-2.826 7.887 1.612 4.433 2.015 11.284 2.015 11.284l5.642 8.463S81.56 64.16 81.56 64.563c0 .403-4.384 1.258-5.24.403-.805-.806 1.21-2.418 1.21-2.418s-1.612-3.224-4.433-4.03c-2.821-.806-10.478-3.627-11.687-4.836-1.209-1.209-27-8.463-34.255-1.612A136.8 136.8 0 0 1 14.26 62.951s-2.015 2.821-4.433 2.821c-2.418 0-2.82-3.627 0-4.03 2.821-.403 6.851-10.075 6.851-10.075s1.21-7.254-4.836-8.463c-3.332-.666-5.317-.72-6.428-.635a3.316 3.316 0 0 1-2.46-.81 14.181 14.181 0 0 1-1.922-2.285 1.606 1.606 0 0 1-.2-1.46 38.268 38.268 0 0 0 1.338-4.482c.403-2.015 3.627-3.627 3.627-3.627s.806-5.642 2.015-4.03c.62.848 1.293 1.656 2.015 2.418Z"/>
  <path fill="#fff" d="M9.827 28.293s8.06 2.821 15.314 1.21c0 0 14.105-2.016 15.314-2.419 1.21-.403 14.911-1.209 22.165 0 0 0 20.15-15.716 8.866-22.567 0 0-4.836 2.418-6.045.806-.453-.605-.227-1.38.234-2.111A5.852 5.852 0 0 1 70.443.563c4.212-.157 11.758 1.356 8.332 15.125a26.777 26.777 0 0 1-5.269 10.36c-1.834 2.263-3.733 5.394-2.826 7.887 1.612 4.433 2.015 11.284 2.015 11.284l5.642 8.463S81.56 64.16 81.56 64.563c0 .403-4.384 1.258-5.24.403-.805-.806 1.21-2.418 1.21-2.418s-1.612-3.224-4.433-4.03c-2.821-.806-10.478-3.627-11.687-4.836-1.209-1.209-27-8.463-34.255-1.612A136.8 136.8 0 0 1 14.26 62.951s-2.015 2.821-4.433 2.821c-2.418 0-2.82-3.627 0-4.03 2.821-.403 6.851-10.075 6.851-10.075s1.21-7.254-4.836-8.463c-3.332-.666-5.317-.72-6.428-.635a3.316 3.316 0 0 1-2.46-.81 14.181 14.181 0 0 1-1.922-2.285 1.606 1.606 0 0 1-.2-1.46 38.268 38.268 0 0 0 1.338-4.482c.403-2.015 3.627-3.627 3.627-3.627s.806-5.642 2.015-4.03c.62.848 1.293 1.656 2.015 2.418Z"/>
</svg>
